<svg xmlns="http://www.w3.org/2000/svg" xmlns:xlink="http://www.w3.org/1999/xlink" width="500" height="500" viewBox="0 0 500 500" fill="none"><g opacity="1"  transform="translate(0 0)  rotate(0)"><g opacity="1"  transform="translate(0 0)  rotate(0)"><rect fill="#FFFFFF" opacity="1" transform="translate(0 0)  rotate(0)" x="0" y="0" width="500" height="500" rx="50" /><mask id="bg-mask-0" fill="white"><use transform="translate(0 0)  rotate(0)" xlink:href="#path_0"></use></mask><g mask="url(#bg-mask-0)" ><g opacity="1"  transform="translate(309 59)  rotate(0)"><mask id="bg-mask-1" fill="white"><use transform="translate(0 0)  rotate(0)" xlink:href="#path_1"></use></mask><g mask="url(#bg-mask-1)" ><path id="路径 1" fill-rule="evenodd" style="fill:#FFFFFF" opacity="1" d="M20.0971 42.7001L20.0971 90.0501L66.5171 114.43L66.5171 65.7101L20.2671 42.6201L20.0971 42.7001Z"></path><path id="拼合图形" fill-rule="evenodd" fill="url(#linear_0)" opacity="1" d="M118.786,34.7254c1.43,0.8 2.58,2.01 3.3,3.47c0.47,1.02 0.7,2.13 0.67,3.26v50.09c-0.01,2.88 -1.62,5.52 -4.18,6.85l-48.6701,25.7596c-0.93,0.45 -1.94,0.72 -2.97,0.79h-0.58c-1.22,-0.08 -2.4,-0.42 -3.47,-1l-48.68,-25.6296c-2.54,-1.31 -4.14,-3.91 -4.17,-6.77v-50.09c0.01,-1.22 0.32,-2.41 0.92,-3.47c0.34,-0.6 0.76,-1.14 1.25,-1.63c0.54,-0.72 1.23,-1.33 2,-1.79l48.72,-25.63998c2.23,-1.16 4.88,-1.16 7.1,0zM20.0159,90.0454l46.46,24.4196v-48.0896l-46.46,-22.81z"></path></g></g><path id="A" fill-rule="evenodd" fill="url(#linear_1)" opacity="1" d="M230.159,125h37.9c4.07,0 7.74,2.47 9.27,6.25l93.1,230c2.66,6.57 -2.18,13.75 -9.27,13.75h-39.58c-4.16,0 -7.88,-2.58 -9.35,-6.47l-14.2,-37.61c-1.47,-3.89 -5.2,-6.47 -9.36,-6.47h-80.46c-4.21,0 -7.96,2.63 -9.4,6.58l-13.61,37.39c-1.44,3.95 -5.19,6.58 -9.4,6.58h-36.23c-7.05,0 -11.89,-7.1 -9.31,-13.66l90.6,-230c1.5,-3.82 5.19,-6.34 9.3,-6.34zM238.369,223.02l-14.23,39.18c-2.36,6.52 2.46,13.4 9.39,13.41h29.15c7,0 11.84,-7.01 9.35,-13.55l-14.92,-39.19c-3.3,-8.65 -15.58,-8.55 -18.74,0.15z"></path></g></g></g><defs><rect id="path_0" x="0" y="0" width="500" height="500" /><rect id="path_1" x="0" y="0" width="133" height="133" /><linearGradient id="linear_0" x1="0%" y1="50%" x2="100%" y2="50%" gradientUnits="objectBoundingBox"><stop offset="0" stop-color="#109EE9" stop-opacity="1" /><stop offset="1" stop-color="#4766EA" stop-opacity="1" /></linearGradient><linearGradient id="linear_1" x1="0%" y1="50%" x2="100%" y2="50%" gradientUnits="objectBoundingBox"><stop offset="0" stop-color="#4766EA" stop-opacity="1" /><stop offset="1" stop-color="#109EE9" stop-opacity="1" /></linearGradient></defs></svg>